# This file uses centimeters as units for non-parametric coordinates.

mtllib dockLow.mtl
g default
v -1.995160 -0.458582 4.030777
v -0.995160 -0.458582 4.030777
v -1.995160 1.312824 4.030777
v -0.995160 1.312824 4.030777
v -1.995160 1.312824 3.030777
v -0.995160 1.312824 3.030777
v -1.995160 -0.458582 3.030777
v -0.995160 -0.458582 3.030777
vt 0.051630 0.004729
vt 0.099610 0.004729
vt 0.051630 0.052709
vt 0.099610 0.052709
vt 0.051630 0.100689
vt 0.099610 0.100689
vt 0.051630 0.148668
vt 0.099610 0.148668
vt 0.051630 0.196648
vt 0.099610 0.196648
vt 0.147590 0.004729
vt 0.147590 0.052709
vt 0.003650 0.004729
vt 0.003650 0.052709
vn 0.000000 0.000000 1.000000
vn 0.000000 0.000000 1.000000
vn 0.000000 0.000000 1.000000
vn 0.000000 0.000000 1.000000
vn 0.000000 1.000000 0.000000
vn 0.000000 1.000000 0.000000
vn 0.000000 1.000000 0.000000
vn 0.000000 1.000000 0.000000
vn 0.000000 0.000000 -1.000000
vn 0.000000 0.000000 -1.000000
vn 0.000000 0.000000 -1.000000
vn 0.000000 0.000000 -1.000000
vn 0.000000 -1.000000 0.000000
vn 0.000000 -1.000000 0.000000
vn 0.000000 -1.000000 0.000000
vn 0.000000 -1.000000 0.000000
vn 1.000000 0.000000 0.000000
vn 1.000000 0.000000 0.000000
vn 1.000000 0.000000 0.000000
vn 1.000000 0.000000 0.000000
vn -1.000000 0.000000 0.000000
vn -1.000000 0.000000 0.000000
vn -1.000000 0.000000 0.000000
vn -1.000000 0.000000 0.000000
s off
g pCube1 dockLow
usemtl initialShadingGroup
f 1/1/1 2/2/2 4/4/3 3/3/4
f 3/3/5 4/4/6 6/6/7 5/5/8
f 5/5/9 6/6/10 8/8/11 7/7/12
f 7/7/13 8/8/14 2/10/15 1/9/16
f 2/2/17 8/11/18 6/12/19 4/4/20
f 7/13/21 1/1/22 3/3/23 5/14/24
g default
v -1.661424 0.174285 -5.395521
v 1.661424 0.174285 -5.395521
v -1.661424 0.552724 -5.395521
v 1.661424 0.552724 -5.395521
v -1.661424 0.552724 -6.395521
v 1.661424 0.552724 -6.395521
v -1.661424 0.174285 -6.395521
v 1.661424 0.174285 -6.395521
vt 0.066873 0.606474
vt 0.113017 0.606474
vt 0.066873 0.652617
vt 0.113017 0.652617
vt 0.066873 0.698760
vt 0.113017 0.698760
vt 0.066873 0.744904
vt 0.113017 0.744904
vt 0.066873 0.791047
vt 0.113017 0.791047
vt 0.159160 0.606474
vt 0.159160 0.652617
vt 0.020730 0.606474
vt 0.020730 0.652617
vn 0.000000 0.000000 1.000000
vn 0.000000 0.000000 1.000000
vn 0.000000 0.000000 1.000000
vn 0.000000 0.000000 1.000000
vn 0.000000 1.000000 0.000000
vn 0.000000 1.000000 0.000000
vn 0.000000 1.000000 0.000000
vn 0.000000 1.000000 0.000000
vn 0.000000 0.000000 -1.000000
vn 0.000000 0.000000 -1.000000
vn 0.000000 0.000000 -1.000000
vn 0.000000 0.000000 -1.000000
vn 0.000000 -1.000000 0.000000
vn 0.000000 -1.000000 0.000000
vn 0.000000 -1.000000 0.000000
vn 0.000000 -1.000000 0.000000
vn 1.000000 0.000000 0.000000
vn 1.000000 0.000000 0.000000
vn 1.000000 0.000000 0.000000
vn 1.000000 0.000000 0.000000
vn -1.000000 0.000000 0.000000
vn -1.000000 0.000000 0.000000
vn -1.000000 0.000000 0.000000
vn -1.000000 0.000000 0.000000
s off
g dockLow pCube15
usemtl initialShadingGroup
f 9/15/25 10/16/26 12/18/27 11/17/28
f 11/17/29 12/18/30 14/20/31 13/19/32
f 13/19/33 14/20/34 16/22/35 15/21/36
f 15/21/37 16/22/38 10/24/39 9/23/40
f 10/16/41 16/25/42 14/26/43 12/18/44
f 15/27/45 9/15/46 11/17/47 13/28/48
g default
v -1.661424 0.174285 -3.168938
v 1.661424 0.174285 -3.168938
v -1.661424 0.552724 -3.168938
v 1.661424 0.552724 -3.168938
v -1.661424 0.552724 -4.168938
v 1.661424 0.552724 -4.168938
v -1.661424 0.174285 -4.168938
v 1.661424 0.174285 -4.168938
vt 0.826555 0.991824
vt 0.780414 0.991362
vt 0.827016 0.945683
vt 0.780876 0.945221
vt 0.827478 0.899542
vt 0.781337 0.899080
vt 0.827940 0.853401
vt 0.781799 0.852939
vt 0.828402 0.807260
vt 0.782261 0.806799
vt 0.734273 0.990901
vt 0.734735 0.944760
vt 0.872696 0.992286
vt 0.873157 0.946145
vn 0.000000 0.000000 1.000000
vn 0.000000 0.000000 1.000000
vn 0.000000 0.000000 1.000000
vn 0.000000 0.000000 1.000000
vn 0.000000 1.000000 0.000000
vn 0.000000 1.000000 0.000000
vn 0.000000 1.000000 0.000000
vn 0.000000 1.000000 0.000000
vn 0.000000 0.000000 -1.000000
vn 0.000000 0.000000 -1.000000
vn 0.000000 0.000000 -1.000000
vn 0.000000 0.000000 -1.000000
vn 0.000000 -1.000000 0.000000
vn 0.000000 -1.000000 0.000000
vn 0.000000 -1.000000 0.000000
vn 0.000000 -1.000000 0.000000
vn 1.000000 0.000000 0.000000
vn 1.000000 0.000000 0.000000
vn 1.000000 0.000000 0.000000
vn 1.000000 0.000000 0.000000
vn -1.000000 0.000000 0.000000
vn -1.000000 0.000000 0.000000
vn -1.000000 0.000000 0.000000
vn -1.000000 0.000000 0.000000
s off
g dockLow pCube22
usemtl initialShadingGroup
f 17/29/49 18/30/50 20/32/51 19/31/52
f 19/31/53 20/32/54 22/34/55 21/33/56
f 21/33/57 22/34/58 24/36/59 23/35/60
f 23/35/61 24/36/62 18/38/63 17/37/64
f 18/30/65 24/39/66 22/40/67 20/32/68
f 23/41/69 17/29/70 19/31/71 21/42/72
g default
v -1.661424 0.174285 1.648542
v 1.661424 0.174285 1.648542
v -1.661424 0.552724 1.648542
v 1.661424 0.552724 1.648542
v -1.661424 0.552724 0.648542
v 1.661424 0.552724 0.648542
v -1.661424 0.174285 0.648542
v 1.661424 0.174285 0.648542
vt 0.254890 0.805234
vt 0.301033 0.805234
vt 0.254890 0.851377
vt 0.301033 0.851377
vt 0.254890 0.897521
vt 0.301033 0.897521
vt 0.254890 0.943664
vt 0.301033 0.943664
vt 0.254890 0.989807
vt 0.301033 0.989807
vt 0.347176 0.805234
vt 0.347176 0.851377
vt 0.208747 0.805234
vt 0.208747 0.851377
vn 0.000000 0.000000 1.000000
vn 0.000000 0.000000 1.000000
vn 0.000000 0.000000 1.000000
vn 0.000000 0.000000 1.000000
vn 0.000000 1.000000 0.000000
vn 0.000000 1.000000 0.000000
vn 0.000000 1.000000 0.000000
vn 0.000000 1.000000 0.000000
vn 0.000000 0.000000 -1.000000
vn 0.000000 0.000000 -1.000000
vn 0.000000 0.000000 -1.000000
vn 0.000000 0.000000 -1.000000
vn 0.000000 -1.000000 0.000000
vn 0.000000 -1.000000 0.000000
vn 0.000000 -1.000000 0.000000
vn 0.000000 -1.000000 0.000000
vn 1.000000 0.000000 0.000000
vn 1.000000 0.000000 0.000000
vn 1.000000 0.000000 0.000000
vn 1.000000 0.000000 0.000000
vn -1.000000 0.000000 0.000000
vn -1.000000 0.000000 0.000000
vn -1.000000 0.000000 0.000000
vn -1.000000 0.000000 0.000000
s off
g dockLow pCube7
usemtl initialShadingGroup
f 25/43/73 26/44/74 28/46/75 27/45/76
f 27/45/77 28/46/78 30/48/79 29/47/80
f 29/47/81 30/48/82 32/50/83 31/49/84
f 31/49/85 32/50/86 26/52/87 25/51/88
f 26/44/89 32/53/90 30/54/91 28/46/92
f 31/55/93 25/43/94 27/45/95 29/56/96
g default
v -1.661424 0.174285 0.521914
v 1.661424 0.174285 0.521914
v -1.661424 0.552724 0.521914
v 1.661424 0.552724 0.521914
v -1.661424 0.552724 -0.478086
v 1.661424 0.552724 -0.478086
v -1.661424 0.174285 -0.478086
v 1.661424 0.174285 -0.478086
vt 0.404939 0.991585
vt 0.358796 0.991609
vt 0.404914 0.945441
vt 0.358771 0.945466
vt 0.404890 0.899298
vt 0.358746 0.899323
vt 0.404865 0.853155
vt 0.358722 0.853180
vt 0.404840 0.807012
vt 0.358697 0.807037
vt 0.312653 0.991634
vt 0.312628 0.945491
vt 0.451082 0.991560
vt 0.451058 0.945417
vn 0.000000 0.000000 1.000000
vn 0.000000 0.000000 1.000000
vn 0.000000 0.000000 1.000000
vn 0.000000 0.000000 1.000000
vn 0.000000 1.000000 0.000000
vn 0.000000 1.000000 0.000000
vn 0.000000 1.000000 0.000000
vn 0.000000 1.000000 0.000000
vn 0.000000 0.000000 -1.000000
vn 0.000000 0.000000 -1.000000
vn 0.000000 0.000000 -1.000000
vn 0.000000 0.000000 -1.000000
vn 0.000000 -1.000000 0.000000
vn 0.000000 -1.000000 0.000000
vn 0.000000 -1.000000 0.000000
vn 0.000000 -1.000000 0.000000
vn 1.000000 0.000000 0.000000
vn 1.000000 0.000000 0.000000
vn 1.000000 0.000000 0.000000
vn 1.000000 0.000000 0.000000
vn -1.000000 0.000000 0.000000
vn -1.000000 0.000000 0.000000
vn -1.000000 0.000000 0.000000
vn -1.000000 0.000000 0.000000
s off
g dockLow pCube8
usemtl initialShadingGroup
f 33/57/97 34/58/98 36/60/99 35/59/100
f 35/59/101 36/60/102 38/62/103 37/61/104
f 37/61/105 38/62/106 40/64/107 39/63/108
f 39/63/109 40/64/110 34/66/111 33/65/112
f 34/58/113 40/67/114 38/68/115 36/60/116
f 39/69/117 33/57/118 35/59/119 37/70/120
g default
v -1.661424 0.174285 2.776200
v 1.661424 0.174285 2.776200
v -1.661424 0.552724 2.776200
v 1.661424 0.552724 2.776200
v -1.661424 0.552724 1.776200
v 1.661424 0.552724 1.776200
v -1.661424 0.174285 1.776200
v 1.661424 0.174285 1.776200
vt 0.202635 0.991576
vt 0.156492 0.991619
vt 0.202592 0.945433
vt 0.156448 0.945476
vt 0.202548 0.899290
vt 0.156405 0.899333
vt 0.202505 0.853146
vt 0.156362 0.853190
vt 0.202461 0.807003
vt 0.156318 0.807047
vt 0.110348 0.991663
vt 0.110305 0.945520
vt 0.248778 0.991533
vt 0.248735 0.945389
vn 0.000000 0.000000 1.000000
vn 0.000000 0.000000 1.000000
vn 0.000000 0.000000 1.000000
vn 0.000000 0.000000 1.000000
vn 0.000000 1.000000 0.000000
vn 0.000000 1.000000 0.000000
vn 0.000000 1.000000 0.000000
vn 0.000000 1.000000 0.000000
vn 0.000000 0.000000 -1.000000
vn 0.000000 0.000000 -1.000000
vn 0.000000 0.000000 -1.000000
vn 0.000000 0.000000 -1.000000
vn 0.000000 -1.000000 0.000000
vn 0.000000 -1.000000 0.000000
vn 0.000000 -1.000000 0.000000
vn 0.000000 -1.000000 0.000000
vn 1.000000 0.000000 0.000000
vn 1.000000 0.000000 0.000000
vn 1.000000 0.000000 0.000000
vn 1.000000 0.000000 0.000000
vn -1.000000 0.000000 0.000000
vn -1.000000 0.000000 0.000000
vn -1.000000 0.000000 0.000000
vn -1.000000 0.000000 0.000000
s off
g dockLow pCube6
usemtl initialShadingGroup
f 41/71/121 42/72/122 44/74/123 43/73/124
f 43/73/125 44/74/126 46/76/127 45/75/128
f 45/75/129 46/76/130 48/78/131 47/77/132
f 47/77/133 48/78/134 42/80/135 41/79/136
f 42/72/137 48/81/138 46/82/139 44/74/140
f 47/83/141 41/71/142 43/73/143 45/84/144
g default
v -1.661424 0.174285 -1.783143
v 1.661424 0.174285 -1.783143
v -1.661424 0.552724 -1.783143
v 1.661424 0.552724 -1.783143
v -1.661424 0.552724 -2.783143
v 1.661424 0.552724 -2.783143
v -1.661424 0.174285 -2.783143
v 1.661424 0.174285 -2.783143
vt 0.623169 0.994001
vt 0.575916 0.993635
vt 0.623536 0.946748
vt 0.576283 0.946381
vt 0.623902 0.899494
vt 0.576649 0.899128
vt 0.624268 0.852241
vt 0.577015 0.851875
vt 0.624635 0.804988
vt 0.577381 0.804622
vt 0.528663 0.993268
vt 0.529029 0.946015
vt 0.670423 0.994367
vt 0.670789 0.947114
vn 0.000000 0.000000 1.000000
vn 0.000000 0.000000 1.000000
vn 0.000000 0.000000 1.000000
vn 0.000000 0.000000 1.000000
vn 0.000000 1.000000 0.000000
vn 0.000000 1.000000 0.000000
vn 0.000000 1.000000 0.000000
vn 0.000000 1.000000 0.000000
vn 0.000000 0.000000 -1.000000
vn 0.000000 0.000000 -1.000000
vn 0.000000 0.000000 -1.000000
vn 0.000000 0.000000 -1.000000
vn 0.000000 -1.000000 0.000000
vn 0.000000 -1.000000 0.000000
vn 0.000000 -1.000000 0.000000
vn 0.000000 -1.000000 0.000000
vn 1.000000 0.000000 0.000000
vn 1.000000 0.000000 0.000000
vn 1.000000 0.000000 0.000000
vn 1.000000 0.000000 0.000000
vn -1.000000 0.000000 0.000000
vn -1.000000 0.000000 0.000000
vn -1.000000 0.000000 0.000000
vn -1.000000 0.000000 0.000000
s off
g dockLow pCube10
usemtl initialShadingGroup
f 49/85/145 50/86/146 52/88/147 51/87/148
f 51/87/149 52/88/150 54/90/151 53/89/152
f 53/89/153 54/90/154 56/92/155 55/91/156
f 55/91/157 56/92/158 50/94/159 49/93/160
f 50/86/161 56/95/162 54/96/163 52/88/164
f 55/97/165 49/85/166 51/87/167 53/98/168
g default
v 1.010177 -0.458582 -3.035075
v 2.010177 -0.458582 -3.035075
v 1.010177 1.312824 -3.035075
v 2.010177 1.312824 -3.035075
v 1.010177 1.312824 -4.035075
v 2.010177 1.312824 -4.035075
v 1.010177 -0.458582 -4.035075
v 2.010177 -0.458582 -4.035075
vt 0.527938 0.006520
vt 0.575918 0.006520
vt 0.527938 0.054500
vt 0.575918 0.054500
vt 0.527938 0.102479
vt 0.575918 0.102479
vt 0.527938 0.150459
vt 0.575918 0.150459
vt 0.527938 0.198439
vt 0.575918 0.198439
vt 0.623898 0.006520
vt 0.623898 0.054500
vt 0.479959 0.006520
vt 0.479959 0.054500
vn 0.000000 0.000000 1.000000
vn 0.000000 0.000000 1.000000
vn 0.000000 0.000000 1.000000
vn 0.000000 0.000000 1.000000
vn 0.000000 1.000000 0.000000
vn 0.000000 1.000000 0.000000
vn 0.000000 1.000000 0.000000
vn 0.000000 1.000000 0.000000
vn 0.000000 0.000000 -1.000000
vn 0.000000 0.000000 -1.000000
vn 0.000000 0.000000 -1.000000
vn 0.000000 0.000000 -1.000000
vn 0.000000 -1.000000 0.000000
vn 0.000000 -1.000000 0.000000
vn 0.000000 -1.000000 0.000000
vn 0.000000 -1.000000 0.000000
vn 1.000000 0.000000 0.000000
vn 1.000000 0.000000 0.000000
vn 1.000000 0.000000 0.000000
vn 1.000000 0.000000 0.000000
vn -1.000000 0.000000 0.000000
vn -1.000000 0.000000 0.000000
vn -1.000000 0.000000 0.000000
vn -1.000000 0.000000 0.000000
s off
g dockLow pCube23
usemtl initialShadingGroup
f 57/99/169 58/100/170 60/102/171 59/101/172
f 59/101/173 60/102/174 62/104/175 61/103/176
f 61/103/177 62/104/178 64/106/179 63/105/180
f 63/105/181 64/106/182 58/108/183 57/107/184
f 58/100/185 64/109/186 62/110/187 60/102/188
f 63/111/189 57/99/190 59/101/191 61/112/192
g default
v 1.484336 0.316494 -3.844999
v 1.743287 0.316494 -3.844999
v 1.484336 0.623299 -3.844999
v 1.743287 0.623299 -3.844999
v 1.484336 0.623299 -7.523120
v 1.743287 0.623299 -7.523120
v 1.484336 0.316494 -7.523120
v 1.743287 0.316494 -7.523120
vt 0.582530 0.368136
vt 0.632346 0.368136
vt 0.582530 0.417952
vt 0.632346 0.417952
vt 0.582530 0.467769
vt 0.632346 0.467769
vt 0.582530 0.517585
vt 0.632346 0.517585
vt 0.582530 0.567401
vt 0.632346 0.567401
vt 0.682163 0.368136
vt 0.682163 0.417952
vt 0.532713 0.368136
vt 0.532713 0.417952
vn 0.000000 0.000000 1.000000
vn 0.000000 0.000000 1.000000
vn 0.000000 0.000000 1.000000
vn 0.000000 0.000000 1.000000
vn 0.000000 1.000000 0.000000
vn 0.000000 1.000000 0.000000
vn 0.000000 1.000000 0.000000
vn 0.000000 1.000000 0.000000
vn 0.000000 0.000000 -1.000000
vn 0.000000 0.000000 -1.000000
vn 0.000000 0.000000 -1.000000
vn 0.000000 0.000000 -1.000000
vn 0.000000 -1.000000 0.000000
vn 0.000000 -1.000000 0.000000
vn 0.000000 -1.000000 0.000000
vn 0.000000 -1.000000 0.000000
vn 1.000000 0.000000 0.000000
vn 1.000000 0.000000 0.000000
vn 1.000000 0.000000 0.000000
vn 1.000000 0.000000 0.000000
vn -1.000000 0.000000 0.000000
vn -1.000000 0.000000 0.000000
vn -1.000000 0.000000 0.000000
vn -1.000000 0.000000 0.000000
s off
g dockLow pCube21
usemtl initialShadingGroup
f 65/113/193 66/114/194 68/116/195 67/115/196
f 67/115/197 68/116/198 70/118/199 69/117/200
f 69/117/201 70/118/202 72/120/203 71/119/204
f 71/119/205 72/120/206 66/122/207 65/121/208
f 66/114/209 72/123/210 70/124/211 68/116/212
f 71/125/213 65/113/214 67/115/215 69/126/216
g default
v -1.720885 0.316494 3.335588
v -1.461933 0.316494 3.335588
v -1.720885 0.623299 3.335588
v -1.461933 0.623299 3.335588
v -1.720885 0.623299 -3.335588
v -1.461933 0.623299 -3.335588
v -1.720885 0.316494 -3.335588
v -1.461933 0.316494 -3.335588
vt 0.236065 0.380762
vt 0.284045 0.380762
vt 0.236065 0.428742
vt 0.284045 0.428742
vt 0.236065 0.476722
vt 0.284045 0.476722
vt 0.236065 0.524702
vt 0.284045 0.524702
vt 0.236065 0.572681
vt 0.284045 0.572681
vt 0.332025 0.380762
vt 0.332025 0.428742
vt 0.188085 0.380762
vt 0.188085 0.428742
vn 0.000000 0.000000 1.000000
vn 0.000000 0.000000 1.000000
vn 0.000000 0.000000 1.000000
vn 0.000000 0.000000 1.000000
vn 0.000000 1.000000 0.000000
vn 0.000000 1.000000 0.000000
vn 0.000000 1.000000 0.000000
vn 0.000000 1.000000 0.000000
vn 0.000000 0.000000 -1.000000
vn 0.000000 0.000000 -1.000000
vn 0.000000 0.000000 -1.000000
vn 0.000000 0.000000 -1.000000
vn 0.000000 -1.000000 0.000000
vn 0.000000 -1.000000 0.000000
vn 0.000000 -1.000000 0.000000
vn 0.000000 -1.000000 0.000000
vn 1.000000 0.000000 0.000000
vn 1.000000 0.000000 0.000000
vn 1.000000 0.000000 0.000000
vn 1.000000 0.000000 0.000000
vn -1.000000 0.000000 0.000000
vn -1.000000 0.000000 0.000000
vn -1.000000 0.000000 0.000000
vn -1.000000 0.000000 0.000000
s off
g dockLow pCube13
usemtl initialShadingGroup
f 73/127/217 74/128/218 76/130/219 75/129/220
f 75/129/221 76/130/222 78/132/223 77/131/224
f 77/131/225 78/132/226 80/134/227 79/133/228
f 79/133/229 80/134/230 74/136/231 73/135/232
f 74/128/233 80/137/234 78/138/235 76/130/236
f 79/139/237 73/127/238 75/129/239 77/140/240
g default
v -1.661424 0.174285 -2.918537
v 1.661424 0.174285 -2.918537
v -1.661424 0.552724 -2.918537
v 1.661424 0.552724 -2.918537
v -1.661424 0.552724 -3.918537
v 1.661424 0.552724 -3.918537
v -1.661424 0.174285 -3.918537
v 1.661424 0.174285 -3.918537
vt 0.676601 0.809053
vt 0.722743 0.808696
vt 0.676957 0.855195
vt 0.723099 0.854838
vt 0.677314 0.901337
vt 0.723456 0.900980
vt 0.677671 0.947478
vt 0.723812 0.947122
vt 0.678027 0.993620
vt 0.724169 0.993264
vt 0.768885 0.808340
vt 0.769241 0.854481
vt 0.630459 0.809409
vt 0.630816 0.855551
vn 0.000000 0.000000 1.000000
vn 0.000000 0.000000 1.000000
vn 0.000000 0.000000 1.000000
vn 0.000000 0.000000 1.000000
vn 0.000000 1.000000 0.000000
vn 0.000000 1.000000 0.000000
vn 0.000000 1.000000 0.000000
vn 0.000000 1.000000 0.000000
vn 0.000000 0.000000 -1.000000
vn 0.000000 0.000000 -1.000000
vn 0.000000 0.000000 -1.000000
vn 0.000000 0.000000 -1.000000
vn 0.000000 -1.000000 0.000000
vn 0.000000 -1.000000 0.000000
vn 0.000000 -1.000000 0.000000
vn 0.000000 -1.000000 0.000000
vn 1.000000 0.000000 0.000000
vn 1.000000 0.000000 0.000000
vn 1.000000 0.000000 0.000000
vn 1.000000 0.000000 0.000000
vn -1.000000 0.000000 0.000000
vn -1.000000 0.000000 0.000000
vn -1.000000 0.000000 0.000000
vn -1.000000 0.000000 0.000000
s off
g dockLow pCube11
usemtl initialShadingGroup
f 81/141/241 82/142/242 84/144/243 83/143/244
f 83/143/245 84/144/246 86/146/247 85/145/248
f 85/145/249 86/146/250 88/148/251 87/147/252
f 87/147/253 88/148/254 82/150/255 81/149/256
f 82/142/257 88/151/258 86/152/259 84/144/260
f 87/153/261 81/141/262 83/143/263 85/154/264
g default
v -1.661424 0.174285 -0.623113
v 1.661424 0.174285 -0.623113
v -1.661424 0.552724 -0.623113
v 1.661424 0.552724 -0.623113
v -1.661424 0.552724 -1.623113
v 1.661424 0.552724 -1.623113
v -1.661424 0.174285 -1.623113
v 1.661424 0.174285 -1.623113
vt 0.471437 0.807055
vt 0.517580 0.806995
vt 0.471497 0.853198
vt 0.517640 0.853138
vt 0.471557 0.899341
vt 0.517700 0.899281
vt 0.471616 0.945484
vt 0.517759 0.945425
vt 0.471676 0.991628
vt 0.517819 0.991568
vt 0.563723 0.806935
vt 0.563783 0.853078
vt 0.425294 0.807115
vt 0.425353 0.853258
vn 0.000000 0.000000 1.000000
vn 0.000000 0.000000 1.000000
vn 0.000000 0.000000 1.000000
vn 0.000000 0.000000 1.000000
vn 0.000000 1.000000 0.000000
vn 0.000000 1.000000 0.000000
vn 0.000000 1.000000 0.000000
vn 0.000000 1.000000 0.000000
vn 0.000000 0.000000 -1.000000
vn 0.000000 0.000000 -1.000000
vn 0.000000 0.000000 -1.000000
vn 0.000000 0.000000 -1.000000
vn 0.000000 -1.000000 0.000000
vn 0.000000 -1.000000 0.000000
vn 0.000000 -1.000000 0.000000
vn 0.000000 -1.000000 0.000000
vn 1.000000 0.000000 0.000000
vn 1.000000 0.000000 0.000000
vn 1.000000 0.000000 0.000000
vn 1.000000 0.000000 0.000000
vn -1.000000 0.000000 0.000000
vn -1.000000 0.000000 0.000000
vn -1.000000 0.000000 0.000000
vn -1.000000 0.000000 0.000000
s off
g dockLow pCube9
usemtl initialShadingGroup
f 89/155/265 90/156/266 92/158/267 91/157/268
f 91/157/269 92/158/270 94/160/271 93/159/272
f 93/159/273 94/160/274 96/162/275 95/161/276
f 95/161/277 96/162/278 90/164/279 89/163/280
f 90/156/281 96/165/282 94/166/283 92/158/284
f 95/167/285 89/155/286 91/157/287 93/168/288
g default
v -1.995160 -0.458582 -3.013286
v -0.995160 -0.458582 -3.013286
v -1.995160 1.312824 -3.013286
v -0.995160 1.312824 -3.013286
v -1.995160 1.312824 -4.013286
v -0.995160 1.312824 -4.013286
v -1.995160 -0.458582 -4.013286
v -0.995160 -0.458582 -4.013286
vt 0.693676 0.198544
vt 0.645697 0.198332
vt 0.693888 0.150565
vt 0.645909 0.150353
vt 0.694100 0.102585
vt 0.646121 0.102373
vt 0.694312 0.054606
vt 0.646332 0.054394
vt 0.694523 0.006627
vt 0.646544 0.006415
vt 0.597718 0.198120
vt 0.597929 0.150141
vt 0.741656 0.198756
vt 0.741867 0.150776
vn 0.000000 0.000000 1.000000
vn 0.000000 0.000000 1.000000
vn 0.000000 0.000000 1.000000
vn 0.000000 0.000000 1.000000
vn 0.000000 1.000000 0.000000
vn 0.000000 1.000000 0.000000
vn 0.000000 1.000000 0.000000
vn 0.000000 1.000000 0.000000
vn 0.000000 0.000000 -1.000000
vn 0.000000 0.000000 -1.000000
vn 0.000000 0.000000 -1.000000
vn 0.000000 0.000000 -1.000000
vn 0.000000 -1.000000 0.000000
vn 0.000000 -1.000000 0.000000
vn 0.000000 -1.000000 0.000000
vn 0.000000 -1.000000 0.000000
vn 1.000000 0.000000 0.000000
vn 1.000000 0.000000 0.000000
vn 1.000000 0.000000 0.000000
vn 1.000000 0.000000 0.000000
vn -1.000000 0.000000 0.000000
vn -1.000000 0.000000 0.000000
vn -1.000000 0.000000 0.000000
vn -1.000000 0.000000 0.000000
s off
g dockLow pCube14
usemtl initialShadingGroup
f 97/169/289 98/170/290 100/172/291 99/171/292
f 99/171/293 100/172/294 102/174/295 101/173/296
f 101/173/297 102/174/298 104/176/299 103/175/300
f 103/175/301 104/176/302 98/178/303 97/177/304
f 98/170/305 104/179/306 102/180/307 100/172/308
f 103/181/309 97/169/310 99/171/311 101/182/312
g default
v 1.484336 0.316494 3.335588
v 1.743287 0.316494 3.335588
v 1.484336 0.623299 3.335588
v 1.743287 0.623299 3.335588
v 1.484336 0.623299 -3.335588
v 1.743287 0.623299 -3.335588
v 1.484336 0.316494 -3.335588
v 1.743287 0.316494 -3.335588
vt 0.069536 0.373600
vt 0.117516 0.373600
vt 0.069536 0.421579
vt 0.117516 0.421579
vt 0.069536 0.469559
vt 0.117516 0.469559
vt 0.069536 0.517539
vt 0.117516 0.517539
vt 0.069536 0.565519
vt 0.117516 0.565519
vt 0.165496 0.373600
vt 0.165496 0.421579
vt 0.021556 0.373600
vt 0.021556 0.421579
vn 0.000000 0.000000 1.000000
vn 0.000000 0.000000 1.000000
vn 0.000000 0.000000 1.000000
vn 0.000000 0.000000 1.000000
vn 0.000000 1.000000 0.000000
vn 0.000000 1.000000 0.000000
vn 0.000000 1.000000 0.000000
vn 0.000000 1.000000 0.000000
vn 0.000000 0.000000 -1.000000
vn 0.000000 0.000000 -1.000000
vn 0.000000 0.000000 -1.000000
vn 0.000000 0.000000 -1.000000
vn 0.000000 -1.000000 0.000000
vn 0.000000 -1.000000 0.000000
vn 0.000000 -1.000000 0.000000
vn 0.000000 -1.000000 0.000000
vn 1.000000 0.000000 0.000000
vn 1.000000 0.000000 0.000000
vn 1.000000 0.000000 0.000000
vn 1.000000 0.000000 0.000000
vn -1.000000 0.000000 0.000000
vn -1.000000 0.000000 0.000000
vn -1.000000 0.000000 0.000000
vn -1.000000 0.000000 0.000000
s off
g dockLow pCube12
usemtl initialShadingGroup
f 105/183/313 106/184/314 108/186/315 107/185/316
f 107/185/317 108/186/318 110/188/319 109/187/320
f 109/187/321 110/188/322 112/190/323 111/189/324
f 111/189/325 112/190/326 106/192/327 105/191/328
f 106/184/329 112/193/330 110/194/331 108/186/332
f 111/195/333 105/183/334 107/185/335 109/196/336
g default
v -1.661424 0.174285 -6.522149
v 1.661424 0.174285 -6.522149
v -1.661424 0.552724 -6.522149
v 1.661424 0.552724 -6.522149
v -1.661424 0.552724 -7.522149
v 1.661424 0.552724 -7.522149
v -1.661424 0.174285 -7.522149
v 1.661424 0.174285 -7.522149
vt 0.224049 0.792834
vt 0.177905 0.792841
vt 0.224042 0.746691
vt 0.177899 0.746697
vt 0.224036 0.700548
vt 0.177893 0.700554
vt 0.224029 0.654405
vt 0.177886 0.654411
vt 0.224023 0.608261
vt 0.177880 0.608268
vt 0.131762 0.792847
vt 0.131756 0.746704
vt 0.270192 0.792828
vt 0.270185 0.746685
vn 0.000000 0.000000 1.000000
vn 0.000000 0.000000 1.000000
vn 0.000000 0.000000 1.000000
vn 0.000000 0.000000 1.000000
vn 0.000000 1.000000 0.000000
vn 0.000000 1.000000 0.000000
vn 0.000000 1.000000 0.000000
vn 0.000000 1.000000 0.000000
vn 0.000000 0.000000 -1.000000
vn 0.000000 0.000000 -1.000000
vn 0.000000 0.000000 -1.000000
vn 0.000000 0.000000 -1.000000
vn 0.000000 -1.000000 0.000000
vn 0.000000 -1.000000 0.000000
vn 0.000000 -1.000000 0.000000
vn 0.000000 -1.000000 0.000000
vn 1.000000 0.000000 0.000000
vn 1.000000 0.000000 0.000000
vn 1.000000 0.000000 0.000000
vn 1.000000 0.000000 0.000000
vn -1.000000 0.000000 0.000000
vn -1.000000 0.000000 0.000000
vn -1.000000 0.000000 0.000000
vn -1.000000 0.000000 0.000000
s off
g dockLow pCube16
usemtl initialShadingGroup
f 113/197/337 114/198/338 116/200/339 115/199/340
f 115/199/341 116/200/342 118/202/343 117/201/344
f 117/201/345 118/202/346 120/204/347 119/203/348
f 119/203/349 120/204/350 114/206/351 113/205/352
f 114/198/353 120/207/354 118/208/355 116/200/356
f 119/209/357 113/197/358 115/199/359 117/210/360
g default
v -1.720885 0.316494 -3.678862
v -1.461933 0.316494 -3.678862
v -1.720885 0.623299 -3.678862
v -1.461933 0.623299 -3.678862
v -1.720885 0.623299 -7.516081
v -1.461933 0.623299 -7.516081
v -1.720885 0.316494 -7.516081
v -1.461933 0.316494 -7.516081
vt 0.422291 0.373600
vt 0.470271 0.373600
vt 0.422291 0.421579
vt 0.470271 0.421579
vt 0.422291 0.469559
vt 0.470271 0.469559
vt 0.422291 0.517539
vt 0.470271 0.517539
vt 0.422291 0.565519
vt 0.470271 0.565519
vt 0.518251 0.373600
vt 0.518251 0.421579
vt 0.374311 0.373600
vt 0.374311 0.421579
vn 0.000000 0.000000 1.000000
vn 0.000000 0.000000 1.000000
vn 0.000000 0.000000 1.000000
vn 0.000000 0.000000 1.000000
vn 0.000000 1.000000 0.000000
vn 0.000000 1.000000 0.000000
vn 0.000000 1.000000 0.000000
vn 0.000000 1.000000 0.000000
vn 0.000000 0.000000 -1.000000
vn 0.000000 0.000000 -1.000000
vn 0.000000 0.000000 -1.000000
vn 0.000000 0.000000 -1.000000
vn 0.000000 -1.000000 0.000000
vn 0.000000 -1.000000 0.000000
vn 0.000000 -1.000000 0.000000
vn 0.000000 -1.000000 0.000000
vn 1.000000 0.000000 0.000000
vn 1.000000 0.000000 0.000000
vn 1.000000 0.000000 0.000000
vn 1.000000 0.000000 0.000000
vn -1.000000 0.000000 0.000000
vn -1.000000 0.000000 0.000000
vn -1.000000 0.000000 0.000000
vn -1.000000 0.000000 0.000000
s off
g dockLow pCube19
usemtl initialShadingGroup
f 121/211/361 122/212/362 124/214/363 123/213/364
f 123/213/365 124/214/366 126/216/367 125/215/368
f 125/215/369 126/216/370 128/218/371 127/217/372
f 127/217/373 128/218/374 122/220/375 121/219/376
f 122/212/377 128/221/378 126/222/379 124/214/380
f 127/223/381 121/211/382 123/213/383 125/224/384
g default
v -1.661424 0.174285 -4.267863
v 1.661424 0.174285 -4.267863
v -1.661424 0.552724 -4.267863
v 1.661424 0.552724 -4.267863
v -1.661424 0.552724 -5.267863
v 1.661424 0.552724 -5.267863
v -1.661424 0.174285 -5.267863
v 1.661424 0.174285 -5.267863
vt 0.890565 0.807025
vt 0.936708 0.807025
vt 0.890565 0.853168
vt 0.936708 0.853168
vt 0.890565 0.899311
vt 0.936708 0.899311
vt 0.890565 0.945455
vt 0.936708 0.945455
vt 0.890565 0.991598
vt 0.936708 0.991598
vt 0.982851 0.807025
vt 0.982851 0.853168
vt 0.844422 0.807025
vt 0.844422 0.853168
vn 0.000000 0.000000 1.000000
vn 0.000000 0.000000 1.000000
vn 0.000000 0.000000 1.000000
vn 0.000000 0.000000 1.000000
vn 0.000000 1.000000 0.000000
vn 0.000000 1.000000 0.000000
vn 0.000000 1.000000 0.000000
vn 0.000000 1.000000 0.000000
vn 0.000000 0.000000 -1.000000
vn 0.000000 0.000000 -1.000000
vn 0.000000 0.000000 -1.000000
vn 0.000000 0.000000 -1.000000
vn 0.000000 -1.000000 0.000000
vn 0.000000 -1.000000 0.000000
vn 0.000000 -1.000000 0.000000
vn 0.000000 -1.000000 0.000000
vn 1.000000 0.000000 0.000000
vn 1.000000 0.000000 0.000000
vn 1.000000 0.000000 0.000000
vn 1.000000 0.000000 0.000000
vn -1.000000 0.000000 0.000000
vn -1.000000 0.000000 0.000000
vn -1.000000 0.000000 0.000000
vn -1.000000 0.000000 0.000000
s off
g dockLow pCube17
usemtl initialShadingGroup
f 129/225/385 130/226/386 132/228/387 131/227/388
f 131/227/389 132/228/390 134/230/391 133/229/392
f 133/229/393 134/230/394 136/232/395 135/231/396
f 135/231/397 136/232/398 130/234/399 129/233/400
f 130/226/401 136/235/402 134/236/403 132/228/404
f 135/237/405 129/225/406 131/227/407 133/238/408
g default
v -1.661424 0.174285 3.875125
v 1.661424 0.174285 3.875125
v -1.661424 0.552724 3.875125
v 1.661424 0.552724 3.875125
v -1.661424 0.552724 2.875125
v 1.661424 0.552724 2.875125
v -1.661424 0.174285 2.875125
v 1.661424 0.174285 2.875125
vt 0.052548 0.805234
vt 0.098691 0.805234
vt 0.052548 0.851377
vt 0.098691 0.851377
vt 0.052548 0.897521
vt 0.098691 0.897521
vt 0.052548 0.943664
vt 0.098691 0.943664
vt 0.052548 0.989807
vt 0.098691 0.989807
vt 0.144835 0.805234
vt 0.144835 0.851377
vt 0.006405 0.805234
vt 0.006405 0.851377
vn 0.000000 0.000000 1.000000
vn 0.000000 0.000000 1.000000
vn 0.000000 0.000000 1.000000
vn 0.000000 0.000000 1.000000
vn 0.000000 1.000000 0.000000
vn 0.000000 1.000000 0.000000
vn 0.000000 1.000000 0.000000
vn 0.000000 1.000000 0.000000
vn 0.000000 0.000000 -1.000000
vn 0.000000 0.000000 -1.000000
vn 0.000000 0.000000 -1.000000
vn 0.000000 0.000000 -1.000000
vn 0.000000 -1.000000 0.000000
vn 0.000000 -1.000000 0.000000
vn 0.000000 -1.000000 0.000000
vn 0.000000 -1.000000 0.000000
vn 1.000000 0.000000 0.000000
vn 1.000000 0.000000 0.000000
vn 1.000000 0.000000 0.000000
vn 1.000000 0.000000 0.000000
vn -1.000000 0.000000 0.000000
vn -1.000000 0.000000 0.000000
vn -1.000000 0.000000 0.000000
vn -1.000000 0.000000 0.000000
s off
g dockLow pCube5
usemtl initialShadingGroup
f 137/239/409 138/240/410 140/242/411 139/241/412
f 139/241/413 140/242/414 142/244/415 141/243/416
f 141/243/417 142/244/418 144/246/419 143/245/420
f 143/245/421 144/246/422 138/248/423 137/247/424
f 138/240/425 144/249/426 142/250/427 140/242/428
f 143/251/429 137/239/430 139/241/431 141/252/432
g default
v 1.029403 -0.458582 -3.013309
v 2.029403 -0.458582 -3.013309
v 1.029403 1.312824 -3.013309
v 2.029403 1.312824 -3.013309
v 1.029403 1.312824 -4.013309
v 2.029403 1.312824 -4.013309
v 1.029403 -0.458582 -4.013309
v 2.029403 -0.458582 -4.013309
vt 0.287121 0.006612
vt 0.333264 0.006612
vt 0.287121 0.052755
vt 0.333264 0.052755
vt 0.287121 0.098898
vt 0.333264 0.098898
vt 0.287121 0.145041
vt 0.333264 0.145041
vt 0.287121 0.191185
vt 0.333264 0.191185
vt 0.379408 0.006612
vt 0.379408 0.052755
vt 0.240978 0.006612
vt 0.240978 0.052755
vn 0.000000 0.000000 1.000000
vn 0.000000 0.000000 1.000000
vn 0.000000 0.000000 1.000000
vn 0.000000 0.000000 1.000000
vn 0.000000 1.000000 0.000000
vn 0.000000 1.000000 0.000000
vn 0.000000 1.000000 0.000000
vn 0.000000 1.000000 0.000000
vn 0.000000 0.000000 -1.000000
vn 0.000000 0.000000 -1.000000
vn 0.000000 0.000000 -1.000000
vn 0.000000 0.000000 -1.000000
vn 0.000000 -1.000000 0.000000
vn 0.000000 -1.000000 0.000000
vn 0.000000 -1.000000 0.000000
vn 0.000000 -1.000000 0.000000
vn 1.000000 0.000000 0.000000
vn 1.000000 0.000000 0.000000
vn 1.000000 0.000000 0.000000
vn 1.000000 0.000000 0.000000
vn -1.000000 0.000000 0.000000
vn -1.000000 0.000000 0.000000
vn -1.000000 0.000000 0.000000
vn -1.000000 0.000000 0.000000
s off
g dockLow pCube3
usemtl initialShadingGroup
f 145/253/433 146/254/434 148/256/435 147/255/436
f 147/255/437 148/256/438 150/258/439 149/257/440
f 149/257/441 150/258/442 152/260/443 151/259/444
f 151/259/445 152/260/446 146/262/447 145/261/448
f 146/254/449 152/263/450 150/264/451 148/256/452
f 151/265/453 145/253/454 147/255/455 149/266/456
g default
v 1.010177 -0.458582 4.008988
v 2.010177 -0.458582 4.008988
v 1.010177 1.312824 4.008988
v 2.010177 1.312824 4.008988
v 1.010177 1.312824 3.008988
v 2.010177 1.312824 3.008988
v 1.010177 -0.458582 3.008988
v 2.010177 -0.458582 3.008988
vt 0.455492 0.194970
vt 0.407513 0.194743
vt 0.455719 0.146991
vt 0.407740 0.146764
vt 0.455946 0.099011
vt 0.407966 0.098785
vt 0.456172 0.051032
vt 0.408193 0.050806
vt 0.456399 0.003053
vt 0.408420 0.002826
vt 0.359534 0.194517
vt 0.359760 0.146537
vt 0.503471 0.195197
vt 0.503698 0.147217
vn 0.000000 0.000000 1.000000
vn 0.000000 0.000000 1.000000
vn 0.000000 0.000000 1.000000
vn 0.000000 0.000000 1.000000
vn 0.000000 1.000000 0.000000
vn 0.000000 1.000000 0.000000
vn 0.000000 1.000000 0.000000
vn 0.000000 1.000000 0.000000
vn 0.000000 0.000000 -1.000000
vn 0.000000 0.000000 -1.000000
vn 0.000000 0.000000 -1.000000
vn 0.000000 0.000000 -1.000000
vn 0.000000 -1.000000 0.000000
vn 0.000000 -1.000000 0.000000
vn 0.000000 -1.000000 0.000000
vn 0.000000 -1.000000 0.000000
vn 1.000000 0.000000 0.000000
vn 1.000000 0.000000 0.000000
vn 1.000000 0.000000 0.000000
vn 1.000000 0.000000 0.000000
vn -1.000000 0.000000 0.000000
vn -1.000000 0.000000 0.000000
vn -1.000000 0.000000 0.000000
vn -1.000000 0.000000 0.000000
s off
g dockLow pCube4
usemtl initialShadingGroup
f 153/267/457 154/268/458 156/270/459 155/269/460
f 155/269/461 156/270/462 158/272/463 157/271/464
f 157/271/465 158/272/466 160/274/467 159/273/468
f 159/273/469 160/274/470 154/276/471 153/275/472
f 154/268/473 160/277/474 158/278/475 156/270/476
f 159/279/477 153/267/478 155/269/479 157/280/480
g default
v -1.995160 -0.458582 -3.015288
v -0.995160 -0.458582 -3.015288
v -1.995160 1.312824 -3.015288
v -0.995160 1.312824 -3.015288
v -1.995160 1.312824 -4.015288
v -0.995160 1.312824 -4.015288
v -1.995160 -0.458582 -4.015288
v -0.995160 -0.458582 -4.015288
vt 0.220233 0.193030
vt 0.174090 0.192920
vt 0.220344 0.146887
vt 0.174201 0.146776
vt 0.220454 0.100744
vt 0.174311 0.100633
vt 0.220565 0.054601
vt 0.174422 0.054490
vt 0.220676 0.008458
vt 0.174533 0.008347
vt 0.127947 0.192809
vt 0.128058 0.146666
vt 0.266376 0.193141
vt 0.266487 0.146998
vn 0.000000 0.000000 1.000000
vn 0.000000 0.000000 1.000000
vn 0.000000 0.000000 1.000000
vn 0.000000 0.000000 1.000000
vn 0.000000 1.000000 0.000000
vn 0.000000 1.000000 0.000000
vn 0.000000 1.000000 0.000000
vn 0.000000 1.000000 0.000000
vn 0.000000 0.000000 -1.000000
vn 0.000000 0.000000 -1.000000
vn 0.000000 0.000000 -1.000000
vn 0.000000 0.000000 -1.000000
vn 0.000000 -1.000000 0.000000
vn 0.000000 -1.000000 0.000000
vn 0.000000 -1.000000 0.000000
vn 0.000000 -1.000000 0.000000
vn 1.000000 0.000000 0.000000
vn 1.000000 0.000000 0.000000
vn 1.000000 0.000000 0.000000
vn 1.000000 0.000000 0.000000
vn -1.000000 0.000000 0.000000
vn -1.000000 0.000000 0.000000
vn -1.000000 0.000000 0.000000
vn -1.000000 0.000000 0.000000
s off
g dockLow pCube2
usemtl initialShadingGroup
f 161/281/481 162/282/482 164/284/483 163/283/484
f 163/283/485 164/284/486 166/286/487 165/285/488
f 165/285/489 166/286/490 168/288/491 167/287/492
f 167/287/493 168/288/494 162/290/495 161/289/496
f 162/282/497 168/291/498 166/292/499 164/284/500
f 167/293/501 161/281/502 163/283/503 165/294/504
